<?xml version="1.0" encoding="UTF-8"?>
<svg viewBox="0 0 728.02 218.02" xmlns="http://www.w3.org/2000/svg">
 <g fill-rule="evenodd">
  <path d="m1.4029 199.12c0 9.6932 7.8036 17.497 17.497 17.497h638.31c4.8466 0 9.2208-1.9509 12.383-5.1134l57.028-102.49-57.028-102.49c-2.1746-3.9083-7.5367-5.1134-12.383-5.1134h-638.31c-9.6932 0-17.497 7.8036-17.497 17.497v180.22z" fill="#0875c6" stroke="#0875c6" stroke-width="2.806"/>
  <g stroke="#fff">
   <path d="m4.7274 193.67c0 8.2302 6.6257 14.856 14.856 14.856h632.25c4.115 0 8.6885-1.0118 10.514-4.3416l53.239-97.099s-50.554-94.414-53.239-97.099c-2.6852-2.6852-6.3992-4.3416-10.514-4.3416h-632.25c-8.2301 0-14.856 6.6257-14.856 14.856v173.17z" fill="none" stroke-width="7.5"/>
   <g fill="#fff">
    <path d="m607.99 31.252l44.789 76.854-44.789 76.854h38.681l44.789-76.854-44.789-76.854h-38.681z" stroke-width="3.3"/>
    <path d="m105.7 34.89l-9.7171 0.3599-7.1978 30.591h15.835l1.0797-30.951z" stroke-width="1.25"/>
    <path d="m103.71 100.03l-20.367 0.1339-16.153 72.564h35.537l0.9834-72.698z" stroke-width="2.884"/>
    <path d="m119.37 34.838l9.7171 0.3599 7.1978 30.591h-15.835l-1.0797-30.951z" stroke-width="1.25"/>
    <path d="m121.36 99.978l20.367 0.1339 16.153 72.564h-35.537l-0.9834-72.698z" stroke-width="2.884"/>
    <path d="m112.54 79.824h74.138v11.157l-13.676-0.3599c-2.6992 0.41988-4.4987 2.0994-4.3187 5.0385l2.1593 14.036h-7.9176l-8.6374-19.074-41.747 0.0264-41.747 0.0263-8.6374 19.074h-7.9176l2.1593-14.036c0.71979-2.7592-1.2596-4.9785-4.3187-5.0385l-13.676 0.3599v-11.157h74.138" stroke-width="1.25"/>
   </g>
  </g>
 </g>
</svg>
